<?xml version="1.0" encoding="utf-8"?>
<!-- Generator: Adobe Illustrator 23.0.6, SVG Export Plug-In . SVG Version: 6.00 Build 0)  -->
<svg version="1.1" id="Layer_2" xmlns="http://www.w3.org/2000/svg" xmlns:xlink="http://www.w3.org/1999/xlink" x="0px" y="0px"
	 viewBox="0 0 470.76 200" style="enable-background:new 0 0 470.76 200;" xml:space="preserve">
<style type="text/css">
	.st0{fill:#1C398E;}
	.st1{fill:#FFFFFF;}
	.st2{font-family:'Georgia-Bold';}
	.st3{font-size:94.3166px;}
	.st4{font-family:'Gabriola';}
	.st5{font-size:75.4513px;}
	.st6{letter-spacing:11;}
</style>
<circle class="st0" cx="135.33" cy="17.44" r="15.32"/>
<circle class="st0" cx="91.64" cy="17.44" r="15.32"/>
<circle class="st0" cx="47.24" cy="48.08" r="15.32"/>
<circle class="st0" cx="31.92" cy="100.42" r="15.32"/>
<circle class="st0" cx="47.24" cy="152.76" r="15.32"/>
<circle class="st0" cx="94.48" cy="183.4" r="15.32"/>
<circle class="st0" cx="133.77" cy="183.4" r="15.32"/>
<circle class="st0" cx="177.6" cy="152.76" r="15.32"/>
<circle class="st0" cx="179.56" cy="59.85" r="15.32"/>
<circle class="st0" cx="16.6" cy="63.4" r="10.83"/>
<circle class="st0" cx="13.06" cy="130.12" r="10.83"/>
<circle class="st0" cx="50.79" cy="183.4" r="10.83"/>
<circle class="st0" cx="54.53" cy="77.97" r="10.83"/>
<circle class="st0" cx="58.08" cy="12.95" r="10.83"/>
<circle class="st0" cx="168.73" cy="22.76" r="10.83"/>
<circle class="st0" cx="79.16" cy="48.08" r="10.83"/>
<circle class="st0" cx="145.54" cy="44.53" r="10.83"/>
<circle class="st0" cx="173.11" cy="183.4" r="10.83"/>
<circle class="st0" cx="145.54" cy="152.76" r="10.83"/>
<circle class="st0" cx="79.16" cy="152.76" r="10.83"/>
<circle class="st0" cx="54.53" cy="119.28" r="10.83"/>
<circle class="st0" cx="83.61" cy="130.12" r="7.32"/>
<circle class="st0" cx="72.45" cy="108.45" r="7.32"/>
<circle class="st0" cx="115.9" cy="149.21" r="7.32"/>
<circle class="st0" cx="75.61" cy="77.97" r="7.32"/>
<circle class="st0" cx="98.02" cy="58.91" r="7.32"/>
<circle class="st0" cx="117.92" cy="45.55" r="7.32"/>
<text transform="matrix(1 0 0 1 82.9351 133.6631)" class="st1 st2 st3">Content</text>
<text transform="matrix(1 0 0 1 212.5991 181.8447)" class="st1 st4 st5 st6">Creator</text>
</svg>
